<svg width="108" height="126" viewBox="0 0 108 126" fill="none" xmlns="http://www.w3.org/2000/svg">
<path d="M41.6194 6.19033C47.7266 4.14376 53.7867 1.94533 59.9156 0C69.5844 2.38284 79.1374 5.36953 88.799 7.83193L89.0051 8.43939C79.2423 6.15779 69.6711 3.07709 59.9481 0.640005C53.9928 2.59256 48.0664 4.75484 42.0822 6.67485C41.6989 6.89904 41.0228 6.44344 41.6194 6.19033Z" fill="#1D1D1F"/>
<path d="M27.6405 44.9015C32.0266 43.9397 36.4343 43.0502 40.8022 42.0088C40.7769 44.3808 40.8818 46.7528 40.8022 49.1248C36.3583 49.7973 31.947 50.7049 27.5248 51.4968C27.5501 49.3164 27.3043 47.0059 27.6405 44.9015Z" fill="#1D1D1F"/>
<path d="M10.8087 58.5766C20.7921 56.729 30.8297 55.2031 40.8203 53.3662C40.8203 55.7527 40.8456 58.1355 40.8203 60.522C30.826 62.0334 20.7921 63.2809 10.8449 65.0635C10.8015 62.8867 10.8919 60.7208 10.8087 58.5766Z" fill="#1D1D1F"/>
<path d="M10.9063 69.233C20.8824 68.0144 30.8188 66.3945 40.7985 65.1543C40.7624 67.7035 40.8636 70.2526 40.8202 72.8054C30.826 73.5901 20.8788 74.9749 10.8919 75.8644C10.8774 73.6552 10.8738 71.4423 10.9063 69.233Z" fill="#1D1D1F"/>
<path d="M10.8847 80.3116C20.8572 79.4257 30.8224 78.3591 40.7913 77.4189C40.8492 79.885 40.8166 82.3546 40.8203 84.8242C30.8731 85.4823 20.9331 86.1006 10.9787 86.8889C10.6749 84.8242 10.9317 82.4775 10.8847 80.3116Z" fill="#1D1D1F"/>
<path d="M10.8883 91.1663C20.8681 90.6095 30.8297 89.8321 40.8167 89.3584C40.8167 91.8316 40.8167 94.3085 40.8167 96.7817C30.8406 96.9661 20.8536 96.7456 10.8775 96.93C10.8594 95.0027 10.9173 93.0827 10.8883 91.1663Z" fill="#1D1D1F"/>
<path d="M3.53002 100.065C3.30222 99.36 4.13386 99.5878 4.5533 99.5264C38.7351 99.4613 72.9193 99.4613 107.106 99.5264C107.106 99.671 107.146 99.9675 107.16 100.116C72.6144 100.018 38.0831 100.184 3.53002 100.065Z" fill="#1D1D1F"/>
<path d="M59.3153 3.92285C59.8396 4.08195 60.4001 4.19042 60.928 4.30975C60.8629 6.81191 60.928 9.31408 60.8991 11.8199C60.3806 11.7424 59.8576 11.6989 59.3334 11.6897C59.2864 9.10075 59.3334 6.50818 59.3153 3.92285Z" fill="#1D1D1F"/>
<path d="M64.0341 5.21777C64.5367 5.33348 65.0501 5.42749 65.5563 5.51427C65.5563 7.95497 65.6214 10.3957 65.5563 12.8327C65.0718 12.7966 64.5837 12.7677 64.11 12.7387C63.9943 10.233 64.0811 7.72717 64.0341 5.21777Z" fill="#1D1D1F"/>
<path d="M68.5827 6.20117C69.0905 6.38369 69.6131 6.52162 70.1448 6.61338C70.1846 9.03961 70.1448 11.4695 70.1448 13.8957C69.6538 13.8143 69.159 13.7576 68.6623 13.7258C68.4851 11.2091 68.6261 8.71057 68.5827 6.20117Z" fill="#1D1D1F"/>
<path d="M73.0013 7.39453C73.5312 7.54239 74.0682 7.66308 74.6104 7.75612C74.6104 10.1136 74.6104 12.4567 74.5923 14.8251C74.0885 14.7397 73.5803 14.683 73.07 14.6552C72.9363 12.2325 73.052 9.81353 73.0013 7.39453Z" fill="#1D1D1F"/>
<path d="M77.5935 8.60254C78.0756 8.76901 78.5756 8.87824 79.0832 8.92797C79.123 11.2638 79.1013 13.5996 79.1013 15.9391C78.6276 15.8668 78.1467 15.8234 77.655 15.7836C77.5465 13.3791 77.6658 10.9962 77.5935 8.60254Z" fill="#1D1D1F"/>
<path d="M82.1711 9.84961C82.6442 9.9869 83.128 10.0837 83.6175 10.1389C83.6175 12.3807 83.6428 14.6189 83.6175 16.8571C83.133 16.774 82.6448 16.7089 82.1711 16.6583C82.0916 14.3911 82.1024 12.1167 82.1711 9.84961Z" fill="#1D1D1F"/>
<path d="M86.4993 10.9199C86.9882 11.0415 87.483 11.138 87.9818 11.2092C88.1553 13.404 87.9818 15.6133 88.0794 17.8153C87.5623 17.743 87.0417 17.696 86.521 17.6562C86.4559 15.4217 86.5354 13.1726 86.4993 10.9199Z" fill="#1D1D1F"/>
<path d="M90.8745 11.7305C91.3735 11.8426 91.8833 11.9076 92.3823 12.0414C92.3136 14.2724 92.3823 16.507 92.3823 18.7416C91.8788 18.692 91.3788 18.6111 90.8854 18.4993C90.8745 16.243 90.8745 13.9868 90.8745 11.7305Z" fill="#1D1D1F"/>
<path d="M59.3189 14.6992C59.8324 14.7968 60.3459 14.9017 60.8593 14.9957C60.8593 17.422 60.8918 19.8518 60.834 22.2817L59.3226 22.1659C59.3009 19.6746 59.3189 17.1869 59.3189 14.6992Z" fill="#1D1D1F"/>
<path d="M64.0304 15.8047C64.5289 15.918 65.0336 16.0025 65.5418 16.0578C65.5418 18.5202 65.6069 20.9826 65.5418 23.445C65.0501 23.3799 64.5583 23.3112 64.0629 23.2497C64.0268 20.7692 64.0449 18.2852 64.0304 15.8047Z" fill="#1D1D1F"/>
<path d="M68.5791 16.8105C69.1034 16.8937 69.6313 16.9805 70.1556 17.0817C70.0978 19.4899 70.1267 21.9017 70.1556 24.3134C69.6458 24.3134 69.1396 24.2845 68.6334 24.2592C68.5068 21.7787 68.6117 19.291 68.5791 16.8105Z" fill="#1D1D1F"/>
<path d="M73.0049 17.6133C73.5184 17.7697 74.0467 17.8727 74.5814 17.9206C74.632 20.3432 74.6139 22.7695 74.5814 25.1921C74.1014 25.136 73.6182 25.1119 73.135 25.1198C72.8349 22.6357 73.0555 20.1118 73.0049 17.6133Z" fill="#1D1D1F"/>
<path d="M77.579 18.6934C78.075 18.845 78.5872 18.9372 79.1049 18.9682C79.1049 21.351 79.1049 23.7339 79.1049 26.1131C78.6167 26.048 78.1286 25.9901 77.6585 25.9359C77.579 23.5205 77.6368 21.1051 77.579 18.6934Z" fill="#1D1D1F"/>
<path d="M82.153 19.5576C82.6176 19.7247 83.1059 19.8162 83.5994 19.8288C83.6645 22.2008 83.6319 24.58 83.5994 26.952C83.1112 26.8942 82.6231 26.8327 82.153 26.764C82.0952 24.3631 82.1241 21.9585 82.153 19.5576Z" fill="#1D1D1F"/>
<path d="M86.492 20.5234C87.0163 20.5849 87.5442 20.6645 88.0685 20.7621C88.0685 23.1088 88.0251 25.4627 88.0685 27.8021C87.5587 27.7732 87.0525 27.7262 86.5426 27.6756C86.4088 25.3108 86.5354 22.9063 86.492 20.5234Z" fill="#1D1D1F"/>
<path d="M90.8745 21.5576C91.3687 21.6957 91.8728 21.7961 92.3823 21.8577C92.3823 24.114 92.3823 26.3739 92.4112 28.6338C91.915 28.6386 91.4196 28.5938 90.9323 28.5C90.8347 26.1895 90.8745 23.8645 90.8745 21.5576Z" fill="#1D1D1F"/>
<path d="M59.3154 25.3105C59.8061 25.4668 60.3191 25.5413 60.834 25.5311C60.8991 27.867 60.881 30.2064 60.834 32.5422C60.3314 32.5422 59.8324 32.5133 59.3334 32.488C59.2756 30.0943 59.3371 27.7006 59.3154 25.3105Z" fill="#1D1D1F"/>
<path d="M64.0485 26.291C64.5475 26.3923 65.0501 26.4899 65.5527 26.5586C65.578 28.8836 65.5889 31.2122 65.5129 33.5372C65.0248 33.4866 64.5367 33.4395 64.0485 33.3708C64.034 31.0133 64.0413 28.6522 64.0485 26.291Z" fill="#1D1D1F"/>
<path d="M68.5719 27.3145C69.0975 27.3548 69.6203 27.4261 70.1375 27.5278C70.1375 29.7949 70.1375 32.0657 70.105 34.3364L68.5791 34.1484C68.5466 31.8704 68.5863 29.5924 68.5719 27.3145Z" fill="#1D1D1F"/>
<path d="M72.9832 28.1104C73.5168 28.2663 74.0641 28.3705 74.6176 28.4213C74.5706 30.6885 74.6176 32.952 74.5851 35.2155C74.0752 35.1504 73.5654 35.0781 73.0592 34.9949C72.9398 32.7025 73.0013 30.4064 72.9832 28.1104Z" fill="#1D1D1F"/>
<path d="M77.5681 28.9268C78.0779 29.0316 78.5914 29.1256 79.1085 29.2016C79.1085 31.4579 79.1085 33.7141 79.1085 35.9704C78.6239 35.9053 78.1358 35.8547 77.6621 35.8222C77.579 33.5189 77.6332 31.2192 77.5681 28.9268Z" fill="#1D1D1F"/>
<path d="M82.1603 29.668C82.6394 29.8006 83.1318 29.8795 83.6283 29.903C83.6536 32.1882 83.6283 34.477 83.6283 36.7731C83.1438 36.7116 82.6556 36.6755 82.182 36.6538C82.0952 34.3216 82.0843 31.993 82.1603 29.668Z" fill="#1D1D1F"/>
<path d="M86.4921 30.5215C87.0127 30.6155 87.537 30.6697 88.0613 30.7529C88.083 33.0092 88.018 35.2691 88.083 37.5254C87.5624 37.5037 87.0453 37.4784 86.5282 37.4494C86.4414 35.1389 86.5138 32.8284 86.4921 30.5215Z" fill="#1D1D1F"/>
<path d="M90.8744 31.4795C91.3805 31.5276 91.883 31.6085 92.3786 31.7218C92.3461 33.8913 92.3786 36.0897 92.3786 38.2773C91.8833 38.223 91.3843 38.1688 90.8925 38.0965C90.8684 35.8908 90.8624 33.6852 90.8744 31.4795Z" fill="#1D1D1F"/>
<path d="M59.3153 35.4355C59.8225 35.575 60.3443 35.6551 60.8701 35.6742C60.8701 37.8437 60.8701 40.053 60.8701 42.2406C60.3639 42.2153 59.8576 42.1899 59.355 42.1574C59.2791 39.9011 59.337 37.6629 59.3153 35.4355Z" fill="#1D1D1F"/>
<path d="M64.0485 36.3682C64.5548 36.426 65.061 36.4983 65.5636 36.5887C65.5383 38.8052 65.6178 41.0254 65.5166 43.2419C65.0393 43.2419 64.562 43.2021 64.0702 43.1696C64.0015 40.9024 64.0594 38.6353 64.0485 36.3682Z" fill="#1D1D1F"/>
<path d="M68.5719 37.207C69.0673 37.2613 69.5663 37.3083 70.0652 37.3227C70.2243 39.5646 70.0833 41.8209 70.1412 44.0699C69.635 44.0699 69.1324 44.0446 68.6334 44.0193C68.5032 41.7522 68.6153 39.4778 68.5719 37.207Z" fill="#1D1D1F"/>
<path d="M72.9904 38.0176C73.5364 38.1044 74.0752 38.2056 74.6248 38.3068C74.5778 40.4764 74.6248 42.6459 74.5742 44.8154C74.0715 44.7684 73.5653 44.7214 73.0663 44.6852C72.9217 42.4795 73.0266 40.2449 72.9904 38.0176Z" fill="#1D1D1F"/>
<path d="M77.5862 38.7617C78.0848 38.8806 78.593 38.9545 79.1048 38.9823C79.1048 41.1952 79.1048 43.4117 79.1048 45.6246C78.6203 45.5559 78.1322 45.5125 77.6585 45.4908C77.55 43.249 77.6223 41.0035 77.5862 38.7617Z" fill="#1D1D1F"/>
<path d="M82.1132 39.5029C82.5969 39.6641 83.104 39.7435 83.6138 39.738C83.6536 41.9364 83.6427 44.1312 83.6138 46.3297C83.1293 46.3297 82.6484 46.3297 82.1675 46.3297C82.0373 44.0517 82.1096 41.7737 82.1132 39.5029Z" fill="#1D1D1F"/>
<path d="M86.4849 40.3232C86.9947 40.3919 87.5154 40.4426 88.0324 40.5004C88.0758 42.7206 88.0324 44.9371 88.0614 47.1608C87.5552 47.1608 87.0489 47.1319 86.5427 47.0921C86.4234 44.8358 86.5355 42.5795 86.4849 40.3232Z" fill="#1D1D1F"/>
<path d="M90.8745 41.0576C91.3554 41.1372 91.8327 41.2131 92.3208 41.2673C92.4221 43.4368 92.3678 45.6461 92.3714 47.8337C91.8905 47.7939 91.4132 47.7686 90.9251 47.7542C90.8275 45.5232 90.8745 43.2886 90.8745 41.0576Z" fill="#1D1D1F"/>
<path d="M45.3148 41.3467C48.2991 41.9445 51.2918 42.5001 54.293 43.0136C54.3291 45.4073 54.293 47.8046 54.293 50.1983C51.2882 49.8873 48.3124 49.3377 45.3148 48.9653C45.3148 46.4269 45.3148 43.885 45.3148 41.3467Z" fill="#1D1D1F"/>
<path d="M59.319 45.2666C59.8288 45.3534 60.3459 45.4293 60.863 45.4799C60.863 47.8158 60.9389 50.1552 60.8268 52.4947C60.3278 52.4621 59.8324 52.4404 59.3335 52.4187C59.2973 50.0359 59.3262 47.6494 59.319 45.2666Z" fill="#1D1D1F"/>
<path d="M64.0412 46.2832L65.5671 46.511C65.5454 48.789 65.6177 51.0706 65.5201 53.3522C65.0392 53.3522 64.5583 53.3269 64.0738 53.3233C64.0051 50.9838 64.0665 48.6299 64.0412 46.2832Z" fill="#1D1D1F"/>
<path d="M68.5683 47.1035C69.0662 47.1675 69.5671 47.2061 70.0689 47.2192C70.1846 49.4864 70.0689 51.7571 70.1376 54.0242C69.6169 54.0026 69.0962 53.97 68.5792 53.9266C68.5502 51.6523 68.5683 49.3779 68.5683 47.1035Z" fill="#1D1D1F"/>
<path d="M73.0085 47.7295C73.5196 47.8925 74.0494 47.9897 74.585 48.0188C74.6164 50.2606 74.6164 52.5024 74.585 54.7442C74.0933 54.7225 73.5979 54.6972 73.1061 54.6683C72.9181 52.365 73.0121 50.0436 73.0085 47.7295Z" fill="#1D1D1F"/>
<path d="M77.5753 48.6074C78.074 48.7401 78.589 48.801 79.1048 48.7882C79.1048 51.0156 79.1048 53.2393 79.1048 55.4667C78.6203 55.4269 78.1322 55.398 77.6585 55.3799C77.5609 53.12 77.6115 50.8637 77.5753 48.6074Z" fill="#1D1D1F"/>
<path d="M82.0735 49.3057C82.5862 49.421 83.1054 49.5056 83.6283 49.5588C83.6283 51.844 83.6536 54.1292 83.6283 56.4289C83.1474 56.4289 82.6665 56.4 82.182 56.3746C82.0337 54.0099 82.1964 51.6523 82.0735 49.3057Z" fill="#1D1D1F"/>
<path d="M86.492 50.0322C87.0055 50.1118 87.5225 50.1732 88.0432 50.2203C88.0432 52.4946 88.0432 54.7654 88.0432 57.0434C87.5406 57.0072 87.038 56.9747 86.539 56.9277C86.4269 54.6316 86.5354 52.3319 86.492 50.0322Z" fill="#1D1D1F"/>
<path d="M90.8744 50.7588C91.3532 50.84 91.836 50.8956 92.3208 50.9251C92.4003 53.1452 92.3497 55.3726 92.375 57.5964C91.8814 57.5819 91.3895 57.5312 90.9033 57.4445C90.8744 55.2171 90.8383 52.9862 90.8744 50.7588Z" fill="#1D1D1F"/>
<path d="M45.3148 52.8604C48.3124 53.3376 51.3063 53.8475 54.3074 54.285C54.3074 56.7257 54.2821 59.1664 54.3074 61.6071C51.2918 61.4769 48.316 60.8839 45.3184 60.5874C45.3148 58.0093 45.3148 55.4385 45.3148 52.8604Z" fill="#1D1D1F"/>
<path d="M59.3225 55.6367C59.8241 55.7476 60.3349 55.8117 60.8484 55.8284C60.8918 58.3595 60.9099 60.8905 60.8303 63.4216C60.3277 63.4216 59.8251 63.3963 59.3225 63.3746C59.3044 60.8038 59.3153 58.2148 59.3225 55.6367Z" fill="#1D1D1F"/>
<path d="M64.0449 56.5879C64.5258 56.6313 65.0103 56.6602 65.4913 56.6747C65.5997 59.166 65.5708 61.6645 65.5202 64.1559L64.0413 64.0655C64.0292 61.5729 64.0305 59.0804 64.0449 56.5879Z" fill="#1D1D1F"/>
<path d="M68.5827 57.2178C69.0926 57.2865 69.606 57.3299 70.1195 57.3733C70.1376 59.8754 70.1629 62.374 70.0833 64.8725C69.5988 64.8508 69.1107 64.8327 68.637 64.8038C68.4562 62.28 68.6153 59.7453 68.5827 57.2178Z" fill="#1D1D1F"/>
<path d="M73.0121 57.915C73.528 58.0255 74.0513 58.098 74.5778 58.132C74.6175 60.5727 74.5995 63.0134 74.6175 65.4577C74.1113 65.4252 73.6051 65.4035 73.0953 65.389C72.9362 62.9158 73.0374 60.4064 73.0121 57.915Z" fill="#1D1D1F"/>
<path d="M77.5898 58.5293C78.0876 58.641 78.595 58.704 79.1049 58.7173C79.1049 61.1327 79.1049 63.5517 79.1049 65.9707C78.6131 65.9201 78.1141 65.8948 77.6224 65.8875C77.5971 63.4324 77.5754 60.9808 77.5898 58.5293Z" fill="#1D1D1F"/>
<path d="M82.1168 59.4629C82.6122 59.5863 83.1184 59.6613 83.6283 59.6871C83.6283 61.9976 83.65 64.3081 83.6283 66.6187L82.1819 66.5066C82.0626 64.1599 82.1385 61.8096 82.1168 59.4629Z" fill="#1D1D1F"/>
<path d="M86.4885 60.0771C86.9911 60.0771 87.4973 60.1025 87.9999 60.1133C88.0867 62.4708 87.9818 64.8356 88.065 67.1968C87.5407 67.1968 87.0164 67.1534 86.4957 67.1244C86.474 64.7741 86.4993 62.4274 86.4885 60.0771Z" fill="#1D1D1F"/>
<path d="M90.8744 60.5361C91.3698 60.5976 91.8651 60.6663 92.3678 60.7242C92.328 63.0564 92.422 65.3886 92.3678 67.7172C91.9013 67.6847 91.4312 67.6666 90.9648 67.6449C90.784 65.2837 90.8744 62.9154 90.8744 60.5361Z" fill="#1D1D1F"/>
<path d="M45.3148 64.7412C48.3051 65.1606 51.3099 65.4861 54.3038 65.8585C54.3038 68.3426 54.3291 70.8267 54.2713 73.3072C51.281 73.1625 48.2979 72.9166 45.3148 72.6816C45.3148 70.0384 45.3148 67.388 45.3148 64.7412Z" fill="#1D1D1F"/>
<path d="M59.3189 66.748C59.8329 66.8426 60.3521 66.9066 60.8737 66.9397C60.8737 69.4708 60.928 72.0019 60.8448 74.533L59.3225 74.4968C59.3045 71.9223 59.3153 69.3334 59.3189 66.748Z" fill="#1D1D1F"/>
<path d="M64.0484 67.4756C64.5474 67.5298 65.05 67.5841 65.549 67.6238C65.5707 70.1369 65.5743 72.6499 65.5129 75.1629H64.0665C64.0448 72.5956 64.0123 70.0356 64.0484 67.4756Z" fill="#1D1D1F"/>
<path d="M68.561 68.1338C69.0677 68.2342 69.5816 68.2935 70.0978 68.311L70.1303 75.6222C69.6133 75.6222 69.0962 75.5933 68.5791 75.5716C68.5466 73.0947 68.59 70.6106 68.561 68.1338Z" fill="#1D1D1F"/>
<path d="M73.0121 68.5781C73.5305 68.6754 74.0548 68.7382 74.5814 68.7661C74.6248 71.1562 74.6104 73.5535 74.5814 75.9436C74.059 75.9825 73.5338 75.9521 73.0194 75.8532C72.9651 73.427 73.0194 71.0044 73.0121 68.5781Z" fill="#1D1D1F"/>
<path d="M77.6369 69.1494C78.1214 69.2109 78.6132 69.2723 79.1013 69.3266C79.1013 71.6841 79.1013 74.0272 79.1013 76.3992C78.6168 76.3992 78.1395 76.3739 77.655 76.3558C77.5501 73.9585 77.5646 71.5503 77.6369 69.1494Z" fill="#1D1D1F"/>
<path d="M82.1061 69.7861C82.6015 69.844 83.1004 69.8801 83.5994 69.9018C83.6717 72.2341 83.6392 74.5699 83.6284 76.9021C83.1402 76.9021 82.6593 76.9021 82.182 76.8804C82.088 74.4867 82.1278 72.1328 82.1061 69.7861Z" fill="#1D1D1F"/>
<path d="M86.5029 70.3213C87.0019 70.3719 87.5081 70.4008 88.0107 70.4081C88.1155 72.6861 87.9854 74.9713 88.0758 77.2529C87.5478 77.2529 87.0199 77.2348 86.4956 77.2167C86.4739 74.917 86.4992 72.6174 86.5029 70.3213Z" fill="#1D1D1F"/>
<path d="M90.8744 70.7256C91.3481 70.7834 91.8218 70.8268 92.3208 70.8485C92.4473 73.0976 92.3967 75.3611 92.4112 77.6174C91.9158 77.6174 91.424 77.6174 90.9323 77.5631C90.8347 75.2852 90.8527 73.0036 90.8744 70.7256Z" fill="#1D1D1F"/>
<path d="M45.3148 76.7285C48.3232 76.9455 51.3364 77.1684 54.3544 77.3974C54.3147 79.9285 54.3183 82.4922 54.3183 85.0414C51.3207 84.9871 48.3304 84.7593 45.3329 84.6798C45.3148 82.0294 45.3148 79.3789 45.3148 76.7285Z" fill="#1D1D1F"/>
<path d="M59.3153 77.8057C59.8252 77.8744 60.3386 77.9358 60.8557 77.9684C60.8557 80.5284 60.9135 83.092 60.8557 85.6557C60.3459 85.6557 59.836 85.6557 59.3262 85.6557C59.3117 83.027 59.3153 80.4163 59.3153 77.8057Z" fill="#1D1D1F"/>
<path d="M64.0376 78.5039C64.5293 78.5762 65.0247 78.616 65.5237 78.6449C65.5743 81.0555 65.5743 83.4661 65.5237 85.8766H64.0557C64.0484 83.4142 64.0195 80.9555 64.0376 78.5039Z" fill="#1D1D1F"/>
<path d="M68.5827 78.8574C69.0742 78.9248 69.5692 78.9635 70.0652 78.9731C70.1664 81.3957 70.1411 83.822 70.123 86.2446C69.6204 86.2446 69.1215 86.2446 68.6225 86.2193C68.5429 83.7677 68.5538 81.309 68.5827 78.8574Z" fill="#1D1D1F"/>
<path d="M73.0013 79.0752C73.5256 79.1367 74.0535 79.2017 74.5814 79.2524C74.5814 81.6629 74.5874 84.0735 74.5995 86.4841H73.1061C72.9543 84.0217 73.0085 81.5484 73.0013 79.0752Z" fill="#1D1D1F"/>
<path d="M77.5899 79.5273C78.0902 79.6077 78.5949 79.6572 79.1013 79.6756C79.1013 82.0331 79.1013 84.3762 79.1013 86.7482C78.6132 86.7482 78.125 86.7482 77.655 86.7265C77.6116 84.3256 77.5682 81.9247 77.5899 79.5273Z" fill="#1D1D1F"/>
<path d="M82.1169 80.0654C82.6123 80.1124 83.1113 80.145 83.6139 80.1667C83.6536 82.4627 83.6464 84.7552 83.6139 87.0368L82.1675 87.0585C82.0699 84.7335 82.1097 82.3977 82.1169 80.0654Z" fill="#1D1D1F"/>
<path d="M86.5029 80.3477C86.9947 80.4164 87.49 80.4489 87.989 80.4742C88.0758 82.745 87.989 85.0193 88.0469 87.2901C87.5298 87.2901 87.0127 87.2612 86.4993 87.2503C86.4704 84.9506 86.4921 82.6473 86.5029 80.3477Z" fill="#1D1D1F"/>
<path d="M90.8455 80.7129C91.33 80.7129 91.8145 80.7454 92.2918 80.7707C92.3713 83.0126 92.3352 85.2652 92.346 87.5143C91.8543 87.5143 91.3625 87.5143 90.8744 87.4854C90.8201 85.2291 90.8744 82.9692 90.8455 80.7129Z" fill="#1D1D1F"/>
<path d="M45.3148 88.7842C48.2943 89.0192 51.2954 89.0481 54.2857 89.1458C54.2857 91.7456 54.3147 94.3417 54.264 96.9379C51.281 96.9379 48.2979 96.9379 45.3148 96.9669C45.3148 94.2357 45.3148 91.5081 45.3148 88.7842Z" fill="#1D1D1F"/>
<path d="M59.3189 88.9502C59.8251 89.008 60.3349 89.0623 60.8448 89.1057C60.8448 91.7525 60.9026 94.4029 60.8448 97.0605C60.3313 97.0605 59.8215 97.0605 59.3117 97.0859C59.3189 94.374 59.2972 91.6729 59.3189 88.9502Z" fill="#1D1D1F"/>
<path d="M64.0485 89.2285C64.5511 89.2719 65.0501 89.3081 65.5527 89.3442C65.5864 91.9091 65.5864 94.4727 65.5527 97.0351L64.0304 97.0821C64.0629 94.4643 64.0051 91.8428 64.0485 89.2285Z" fill="#1D1D1F"/>
<path d="M68.5756 89.5791C69.0818 89.6044 69.5916 89.6225 70.1014 89.637C70.1412 92.1066 70.1014 94.5762 70.1485 97.0422C69.6242 97.0784 69.0999 97.0892 68.5756 97.0784C68.5756 94.5762 68.5828 92.0777 68.5756 89.5791Z" fill="#1D1D1F"/>
<path d="M72.9869 89.6982C73.5148 89.7416 74.0464 89.7706 74.5779 89.7923C74.6032 92.2076 74.6032 94.6266 74.6032 97.0456L72.9869 97.0673C72.9797 94.6086 72.9905 92.1534 72.9869 89.6982Z" fill="#1D1D1F"/>
<path d="M77.5718 89.9111C78.0816 89.9292 78.5914 89.9509 79.1049 89.9654C79.1049 92.3265 79.1049 94.6877 79.1049 97.0488C78.6095 97.0488 78.1142 97.0488 77.6224 97.0886C77.5971 94.6949 77.5971 92.3048 77.5718 89.9111Z" fill="#1D1D1F"/>
<path d="M82.1168 90.1611C82.6158 90.2045 83.1184 90.2371 83.621 90.2588C83.6403 92.5247 83.6403 94.7942 83.621 97.0674L82.1205 97.1397C82.0915 94.8147 82.0518 92.4861 82.1168 90.1611Z" fill="#1D1D1F"/>
<path d="M86.4993 90.3701C86.9874 90.4027 87.4755 90.4207 87.9673 90.4244C88.1119 92.6409 88.0251 94.8718 88.0288 97.092H86.4956C86.4703 94.8538 86.4848 92.6119 86.4993 90.3701Z" fill="#1D1D1F"/>
<path d="M90.8491 90.6055L92.2955 90.6272C92.3714 92.7967 92.3533 94.9481 92.3389 97.1104C91.8399 97.1104 91.3445 97.1104 90.8491 97.1104C90.8744 94.9336 90.8744 92.7677 90.8491 90.6055Z" fill="#1D1D1F"/>
<path d="M45.2352 31.9385C48.2328 32.5532 51.2195 33.2474 54.2278 33.8223C54.3472 35.529 54.2785 37.2429 54.2929 38.9496C51.252 38.5663 48.3051 37.6551 45.2967 37.0911C45.3148 35.3735 45.2895 33.656 45.2352 31.9385Z" fill="#27AE60"/>
<path d="M27.5971 36.5568C32.869 34.9478 38.1807 33.4725 43.5068 32.0117C43.4381 33.6425 43.4743 35.266 43.4453 36.904C38.1988 38.2346 32.916 39.511 27.6766 40.9176C27.6152 39.464 27.5645 38.0104 27.5971 36.5568Z" fill="#2F80ED"/>
<path d="M15.6548 116.42H10.3548L9.47484 119H5.87484L11.0548 104.96H14.9948L20.1748 119H16.5348L15.6548 116.42ZM14.7748 113.82L13.0148 108.62L11.2348 113.82H14.7748ZM28.7642 119L25.7042 113.66H24.9242V119H21.5042V104.86H27.3442C28.4642 104.86 29.4109 105.053 30.1842 105.44C30.9576 105.827 31.5376 106.36 31.9242 107.04C32.3109 107.707 32.5042 108.473 32.5042 109.34C32.5042 110.367 32.2176 111.24 31.6442 111.96C31.0842 112.68 30.2642 113.173 29.1842 113.44L32.5442 119H28.7642ZM24.9242 111.32H27.0442C27.7242 111.32 28.2242 111.173 28.5442 110.88C28.8642 110.573 29.0242 110.127 29.0242 109.54C29.0242 108.98 28.8576 108.54 28.5242 108.22C28.2042 107.9 27.7109 107.74 27.0442 107.74H24.9242V111.32ZM44.3791 104.86V107.58H40.5391V119H37.0991V107.58H33.2991V104.86H44.3791ZM58.0406 104.86V119H54.6006V113.1H49.2406V119H45.8206V104.86H49.2406V110.34H54.6006V104.86H58.0406ZM72.6109 104.86L67.7109 114.3V119H64.2709V114.3L59.3709 104.86H63.2909L66.0109 110.62L68.7309 104.86H72.6109ZM82.6861 116.42H77.3861L76.5061 119H72.9061L78.0861 104.96H82.0261L87.2061 119H83.5661L82.6861 116.42ZM81.8061 113.82L80.0461 108.62L78.2661 113.82H81.8061ZM97.2955 116.42H91.9955L91.1155 119H87.5155L92.6955 104.96H96.6355L101.815 119H98.1755L97.2955 116.42ZM96.4155 113.82L94.6555 108.62L92.8755 113.82H96.4155Z" fill="#1D1D1F"/>
<path d="M9.73375 124.06C9.73375 124.233 9.69208 124.395 9.60875 124.545C9.52542 124.692 9.39875 124.81 9.22875 124.9C9.05875 124.99 8.85042 125.035 8.60375 125.035C8.36375 125.035 8.14875 124.993 7.95875 124.91C7.76875 124.823 7.61708 124.703 7.50375 124.55C7.39042 124.397 7.32542 124.22 7.30875 124.02H7.91875C7.93542 124.173 8.00042 124.305 8.11375 124.415C8.23042 124.525 8.38542 124.58 8.57875 124.58C8.75208 124.58 8.88542 124.533 8.97875 124.44C9.07542 124.347 9.12375 124.227 9.12375 124.08C9.12375 123.953 9.08875 123.85 9.01875 123.77C8.94875 123.687 8.86208 123.622 8.75875 123.575C8.65542 123.528 8.51375 123.475 8.33375 123.415C8.11375 123.345 7.93375 123.275 7.79375 123.205C7.65708 123.135 7.54042 123.033 7.44375 122.9C7.34708 122.767 7.29875 122.592 7.29875 122.375C7.29875 122.185 7.34542 122.018 7.43875 121.875C7.53208 121.732 7.66542 121.622 7.83875 121.545C8.01208 121.465 8.21208 121.425 8.43875 121.425C8.79875 121.425 9.08375 121.512 9.29375 121.685C9.50708 121.858 9.62875 122.085 9.65875 122.365H9.04375C9.02042 122.232 8.95708 122.118 8.85375 122.025C8.75375 121.928 8.61542 121.88 8.43875 121.88C8.27875 121.88 8.15042 121.922 8.05375 122.005C7.95708 122.085 7.90875 122.202 7.90875 122.355C7.90875 122.475 7.94208 122.575 8.00875 122.655C8.07542 122.732 8.15875 122.793 8.25875 122.84C8.36208 122.883 8.50208 122.935 8.67875 122.995C8.90208 123.065 9.08375 123.137 9.22375 123.21C9.36708 123.28 9.48708 123.383 9.58375 123.52C9.68375 123.657 9.73375 123.837 9.73375 124.06ZM14.3394 121.425C14.666 121.425 14.961 121.502 15.2244 121.655C15.491 121.808 15.6994 122.023 15.8494 122.3C16.0027 122.573 16.0794 122.883 16.0794 123.23C16.0794 123.577 16.0027 123.888 15.8494 124.165C15.6994 124.438 15.491 124.653 15.2244 124.81C14.961 124.963 14.666 125.04 14.3394 125.04C14.0094 125.04 13.711 124.963 13.4444 124.81C13.181 124.653 12.9727 124.438 12.8194 124.165C12.666 123.888 12.5894 123.577 12.5894 123.23C12.5894 122.883 12.666 122.573 12.8194 122.3C12.9727 122.023 13.181 121.808 13.4444 121.655C13.711 121.502 14.0094 121.425 14.3394 121.425ZM14.3394 121.955C14.1127 121.955 13.911 122.007 13.7344 122.11C13.5577 122.213 13.4194 122.362 13.3194 122.555C13.2227 122.748 13.1744 122.973 13.1744 123.23C13.1744 123.487 13.2227 123.712 13.3194 123.905C13.4194 124.098 13.5577 124.247 13.7344 124.35C13.911 124.453 14.1127 124.505 14.3394 124.505C14.5627 124.505 14.761 124.453 14.9344 124.35C15.111 124.247 15.2477 124.098 15.3444 123.905C15.4444 123.712 15.4944 123.487 15.4944 123.23C15.4944 122.973 15.4444 122.748 15.3444 122.555C15.2477 122.362 15.111 122.213 14.9344 122.11C14.761 122.007 14.5627 121.955 14.3394 121.955ZM20.6296 121.435C21.0629 121.435 21.4229 121.545 21.7096 121.765C21.9962 121.985 22.1896 122.283 22.2896 122.66H21.6846C21.6012 122.447 21.4679 122.278 21.2846 122.155C21.1046 122.028 20.8829 121.965 20.6196 121.965C20.4096 121.965 20.2212 122.017 20.0546 122.12C19.8912 122.223 19.7612 122.372 19.6646 122.565C19.5712 122.755 19.5246 122.978 19.5246 123.235C19.5246 123.488 19.5712 123.712 19.6646 123.905C19.7612 124.095 19.8912 124.242 20.0546 124.345C20.2212 124.448 20.4096 124.5 20.6196 124.5C20.8829 124.5 21.1046 124.438 21.2846 124.315C21.4679 124.188 21.6012 124.02 21.6846 123.81H22.2896C22.1896 124.187 21.9962 124.485 21.7096 124.705C21.4229 124.922 21.0629 125.03 20.6296 125.03C20.2962 125.03 20.0012 124.955 19.7446 124.805C19.4879 124.652 19.2896 124.44 19.1496 124.17C19.0096 123.897 18.9396 123.585 18.9396 123.235C18.9396 122.885 19.0096 122.575 19.1496 122.305C19.2896 122.032 19.4879 121.818 19.7446 121.665C20.0012 121.512 20.2962 121.435 20.6296 121.435ZM25.8283 121.47V125H25.2583V121.47H25.8283ZM29.488 121.93V123H30.788V123.44H29.488V124.535H30.938V125H28.918V121.47H30.938V121.93H29.488ZM36.1613 121.47V121.93H35.1763V125H34.6013V121.93H33.6213V121.47H36.1613ZM41.6516 121.47L40.4766 123.715V125H39.9016V123.715L38.7216 121.47H39.3816L40.1916 123.105L41.0016 121.47H41.6516ZM51.7093 121.525V125H51.1343V122.395L50.1293 125H49.6293L48.6193 122.395V125H48.0493V121.525H48.7393L49.8893 124.3L51.0193 121.525H51.7093ZM56.9 124.235H55.41L55.14 125H54.53L55.83 121.525H56.485L57.78 125H57.17L56.9 124.235ZM56.74 123.795L56.155 122.145L55.57 123.795H56.74ZM63.4582 125H62.8882L61.1732 122.395V125H60.6032V121.475H61.1732L62.8882 124.09V121.475H63.4582V125ZM68.6531 124.235H67.1631L66.8931 125H66.2831L67.5831 121.525H68.2381L69.5331 125H68.9231L68.6531 124.235ZM68.4931 123.795L67.9081 122.145L67.3231 123.795H68.4931ZM73.9713 121.44C74.3913 121.44 74.7413 121.543 75.0213 121.75C75.3013 121.957 75.4863 122.238 75.5763 122.595H74.9763C74.8997 122.405 74.773 122.253 74.5963 122.14C74.423 122.027 74.2163 121.97 73.9763 121.97C73.7563 121.97 73.558 122.022 73.3813 122.125C73.208 122.228 73.0713 122.375 72.9713 122.565C72.8747 122.755 72.8263 122.978 72.8263 123.235C72.8263 123.505 72.8763 123.737 72.9763 123.93C73.0763 124.123 73.2163 124.272 73.3963 124.375C73.5797 124.475 73.7913 124.525 74.0313 124.525C74.3247 124.525 74.5763 124.435 74.7863 124.255C74.9963 124.072 75.123 123.822 75.1663 123.505H73.8713V123.085H75.6463V123.63C75.6063 123.89 75.513 124.127 75.3663 124.34C75.223 124.55 75.0313 124.718 74.7913 124.845C74.5547 124.972 74.283 125.035 73.9763 125.035C73.633 125.035 73.3297 124.958 73.0663 124.805C72.803 124.652 72.5997 124.44 72.4563 124.17C72.313 123.897 72.2413 123.585 72.2413 123.235C72.2413 122.885 72.313 122.575 72.4563 122.305C72.5997 122.032 72.8013 121.82 73.0613 121.67C73.3247 121.517 73.628 121.44 73.9713 121.44ZM79.1935 121.93V123H80.4935V123.44H79.1935V124.535H80.6435V125H78.6235V121.47H80.6435V121.93H79.1935ZM87.2568 121.525V125H86.6818V122.395L85.6768 125H85.1768L84.1668 122.395V125H83.5968V121.525H84.2868L85.4368 124.3L86.5668 121.525H87.2568ZM90.9125 121.93V123H92.2125V123.44H90.9125V124.535H92.3625V125H90.3425V121.47H92.3625V121.93H90.9125ZM98.1707 125H97.6007L95.8857 122.395V125H95.3157V121.475H95.8857L97.6007 124.09V121.475H98.1707V125ZM103.531 121.47V121.93H102.546V125H101.971V121.93H100.991V121.47H103.531Z" fill="#1D1D1F"/>
</svg>
